# xmcd
#
# Track frame offsets:
#	150
#	15331
#	30086
#	39609
#	52827
#	62061
#	72598
#	85130
#	97569
#	109721
#	121611
#	135082
#	145510
#	155651
#	168974
#	180591
#	192406
#	202752
#	213891
#	227777
#	241312
#	253497
#	264261
#	277024
#	288299
#
# Disc length: 4014 seconds
#
# Revision: 0
# Processed by: cddbd v1.5.2PL0 Copyright (c) Steve Scherf et al.
# Submitted via: EasyCDDAExtractor 2010.6.0.0
#
DISCID=440fac19
DTITLE=Various Artist - Bluegrass - Historic Cuts - Various Labels Cd D
DYEAR=1900
DGENRE=
TTITLE0=Hudson Henry and Jiggs Hibler - 8th Of January
TTITLE1=Hudson Henry and Jiggs Hibler - Cripple Creek
TTITLE2=Rainbow Valley Boys - Culloeka
TTITLE3=Rainbow Valley Boys - Broken Hearts Mean Nothing To You
TTITLE4=Hughie and June - Come Along To Glory
TTITLE5=Hughie and June - Reunion Day In Heaven
TTITLE6=Woolum Dave and Noah Crase - Single Girl Married Girl
TTITLE7=Woolum and Noah Crase - I Ain't Gonnna Let Her Do It Anymore
TTITLE8=Woolum Dave - Maple On The Hill
TTITLE9=Woolum Dave - Rolling Stone
TTITLE10=Curtis Wilburn - Thirty Pieces Of Silver
TTITLE11=Johnson Hack - Home Sweet Home
TTITLE12=Johnson Hack - How About You Friend
TTITLE13=Johnson Hack - Gone Home
TTITLE14=Johnson Hack - Swanee River
TTITLE15=Johnson Hack - Crazy Banjo Medley
TTITLE16=Shelton Allen - Allen's Dream
TTITLE17=Shelton Allen - Old Kentucky Home
TTITLE18=North Carolina Ridge Runners - Orange Blossom Special
TTITLE19=Campbell Alex - You Were Only Teasing Me
TTITLE20=Reid Bill and Mary - Bloom Has Left The Rose
TTITLE21=Garay John and Bill - Little Girl Go Tell Your Mama
TTITLE22=Garay John and Bill - Come Back Little Pal
TTITLE23=Martin Ernest - Revelation 1:18
TTITLE24=Martin Ernest - Sugar Coated Love
EXTD=
EXTT0=
EXTT1=
EXTT2=
EXTT3=
EXTT4=
EXTT5=
EXTT6=
EXTT7=
EXTT8=
EXTT9=
EXTT10=
EXTT11=
EXTT12=
EXTT13=
EXTT14=
EXTT15=
EXTT16=
EXTT17=
EXTT18=
EXTT19=
EXTT20=
EXTT21=
EXTT22=
EXTT23=
EXTT24=
PLAYORDER=
